<svg xmlns="http://www.w3.org/2000/svg" width="24" height="24" fill="none" viewBox="0 0 24 24">
    <path fill="#24292E" fill-rule="evenodd" d="M5.75 21C4.784 21 4 20.216 4 19.25s.784-1.75 1.75-1.75 1.75.784 1.75 1.75S6.716 21 5.75 21zM2.5 19.25c0 1.795 1.455 3.25 3.25 3.25S9 21.045 9 19.25 7.545 16 5.75 16 2.5 17.455 2.5 19.25zM5.75 6.5C4.784 6.5 4 5.716 4 4.75S4.784 3 5.75 3s1.75.784 1.75 1.75S6.716 6.5 5.75 6.5zM2.5 4.75C2.5 6.545 3.955 8 5.75 8S9 6.545 9 4.75 7.545 1.5 5.75 1.5 2.5 2.955 2.5 4.75zM18.25 6.5c-.966 0-1.75-.784-1.75-1.75S17.284 3 18.25 3 20 3.784 20 4.75s-.784 1.75-1.75 1.75zM15 4.75C15 6.545 16.455 8 18.25 8s3.25-1.455 3.25-3.25-1.455-3.25-3.25-3.25S15 2.955 15 4.75z" clip-rule="evenodd"/>
    <path fill="#24292E" fill-rule="evenodd" d="M5.75 16.75c.414 0 .75-.336.75-.75V8c0-.414-.336-.75-.75-.75S5 7.586 5 8v8c0 .414.336.75.75.75z" clip-rule="evenodd"/>
    <path fill="#24292E" fill-rule="evenodd" d="M17.5 8.75v-1H19v1c0 2.071-1.679 3.75-3.75 3.75h-7c-.966 0-1.75.784-1.75 1.75H5C5 12.455 6.455 11 8.25 11h7c1.243 0 2.25-1.007 2.25-2.25z" clip-rule="evenodd"/>
</svg>
