<svg xmlns="http://www.w3.org/2000/svg" width="24" height="24" fill="none" viewBox="0 0 24 24">
    <path fill="#24292E" fill-rule="evenodd" d="M12 21c-.966 0-1.75-.784-1.75-1.75s.784-1.75 1.75-1.75 1.75.784 1.75 1.75S12.966 21 12 21zm-3.25-1.75c0 1.795 1.455 3.25 3.25 3.25s3.25-1.455 3.25-3.25S13.795 16 12 16s-3.25 1.455-3.25 3.25zM5.75 6.5C4.784 6.5 4 5.716 4 4.75S4.784 3 5.75 3s1.75.784 1.75 1.75S6.716 6.5 5.75 6.5zM2.5 4.75C2.5 6.545 3.955 8 5.75 8S9 6.545 9 4.75 7.545 1.5 5.75 1.5 2.5 2.955 2.5 4.75zM18.25 6.5c-.966 0-1.75-.784-1.75-1.75S17.284 3 18.25 3 20 3.784 20 4.75s-.784 1.75-1.75 1.75zM15 4.75C15 6.545 16.455 8 18.25 8s3.25-1.455 3.25-3.25-1.455-3.25-3.25-3.25S15 2.955 15 4.75z" clip-rule="evenodd"/>
    <path fill="#24292E" fill-rule="evenodd" d="M6.5 7.75v1C6.5 9.993 7.507 11 8.75 11h6.5c1.243 0 2.25-1.007 2.25-2.25v-1H19v1c0 2.071-1.679 3.75-3.75 3.75h-6.5C6.679 12.5 5 10.821 5 8.75v-1h1.5z" clip-rule="evenodd"/>
    <path fill="#24292E" fill-rule="evenodd" d="M11.25 16.25v-5h1.5v5h-1.5z" clip-rule="evenodd"/>
</svg>
